<?xml version="1.0" encoding="UTF-8" standalone="no"?>
<!-- Created with Inkscape (http://www.inkscape.org/) -->

<svg
   version="1.1"
   id="svg1"
   width="960"
   height="960"
   viewBox="0 0 960 960"
   xmlns="http://www.w3.org/2000/svg"
   xmlns:svg="http://www.w3.org/2000/svg">
  <defs id="defs1" />
  <g id="g1">
    <path
       style="fill:#000000;stroke-width:1.43122"
       d="m 245.42258,958.67464 c -39.28301,-1.18836 -87.99921,-4.7493 -102.15438,-7.46703 -12.87481,-2.47193 -39.27531,-9.94242 -50.306341,-14.2351 C 44.349797,918.05536 14.255296,882.47606 4.8626186,832.81693 -2.617276,793.27079 -1.1901175,737.06887 8.3684198,694.75664 14.053482,669.59089 20.336004,656.40966 29.245841,650.95413 l 5.319117,-3.25693 -0.912026,-7.65311 C 33.151319,635.83488 30.867299,626.677 28.577312,619.69324 26.287326,612.70948 22.64542,601.50652 20.484176,594.79778 13.21321,572.22784 4.5646705,519.55691 1.3921395,478.52419 -0.73472839,451.01608 -0.35208139,367.29511 2.0454612,335.57789 8.8734738,245.2498 17.862182,199.02613 36.995175,155.8521 70.207841,80.906921 127.61456,33.553297 207.02898,15.594713 254.06884,4.9572143 350.80778,-1.1917954 449.32798,0.19345381 c 31.51948,0.44318116 62.24446,1.56092639 68.27775,2.48388809 16.23562,2.4837086 40.84114,8.6543791 54.84799,13.7549881 l 12.34079,4.493927 8.2272,-5.415365 c 4.52496,-2.978442 11.27014,-6.399857 14.98927,-7.603155 17.75526,-5.7445194 70.84841,0.4533393 110.47551,12.896426 116.25039,36.503118 187.53643,130.932947 213.02988,282.192387 6.93126,41.12501 11.01029,95.53878 17.97339,239.76329 1.15036,23.82695 3.02072,56.09416 4.15635,71.70491 6.27773,86.29588 7.99657,154.14957 4.74112,187.16387 -8.30513,84.22444 -46.25628,127.86956 -126.09117,145.0092 -34.0901,7.31874 -75.23852,10.24574 -170.71437,12.14334 -84.37251,1.67693 -359.53243,1.6065 -416.15911,-0.1065 z M 680.7785,937.45125 c 21.67911,-0.50382 76.69987,-2.65989 86.78139,-3.40066 l 12.73662,-0.93586 -5.44039,-6.43008 c -2.99224,-3.53655 -6.72128,-9.16534 -8.28676,-12.50845 -6.23769,-13.32056 -6.94687,-20.45427 -6.94687,-69.87844 v -46.6489 L 480.24053,797.0353 c -240.05382,-0.5272 -284.30398,-0.96008 -314.34754,-3.0751 -68.118632,-4.79543 -99.347445,-9.85194 -128.489869,-20.80482 -7.386118,-2.77598 -14.509116,-5.57309 -15.828896,-6.21575 -2.204108,-1.07332 -2.398942,0.15283 -2.39151,15.05022 0.01988,39.87473 9.529907,74.11588 27.056651,97.41819 11.406283,15.16498 39.105134,33.11649 63.434444,41.11155 36.46899,11.9844 69.60293,15.28182 174.82796,17.39852 43.04498,0.86587 354.73029,0.49869 396.27673,-0.46686 z m 152.88877,-13.2298 c 29.94843,-5.90457 59.00689,-21.88752 76.20173,-41.91306 14.10944,-16.43219 23.7525,-41.51277 28.02728,-72.89591 2.29907,-16.87851 3.23225,-84.00516 1.56795,-112.78585 -2.58923,-44.77473 -8.71952,-134.42733 -9.23269,-135.02351 -0.2731,-0.31723 -4.20607,0.21829 -8.73999,1.19007 -12.7619,2.73534 -31.79969,5.69288 -53.07832,8.24579 -33.34379,4.0004 -52.49883,9.90449 -66.28356,20.4303 -8.9169,6.80883 -14.00665,13.44887 -19.51613,25.46054 -7.84502,17.10357 -8.05929,21.52524 -7.56536,156.13092 0.49222,134.14661 0.11422,128.26 8.9582,139.51637 10.38515,13.21796 24.67937,16.56963 49.66089,11.64434 z m 30.85199,-69.74057 c -7.54879,-3.91753 -11.76306,-9.35359 -13.70248,-17.67507 -2.07442,-8.90067 -1.37441,-142.10926 0.80933,-154.01463 2.50664,-13.66566 11.03798,-21.27008 23.86275,-21.27008 11.75046,0 20.6443,6.95361 24.62832,19.2556 1.77987,5.49591 2.11007,17.07366 2.11007,73.98413 0,73.12322 -0.52647,79.41669 -7.5736,90.53545 -6.69455,10.56244 -19.78898,14.55348 -30.13439,9.1846 z m 16.16249,-17.82766 c 4.40163,-5.29881 5.02384,-15.5963 5.05757,-83.70156 l 0.0336,-67.66473 -3.36568,-3.66672 c -1.85112,-2.0167 -4.65584,-3.66673 -6.23273,-3.66673 -1.57688,0 -4.3816,1.65003 -6.23272,3.66673 -3.25251,3.54343 -3.36782,4.38477 -3.42962,25.02202 -0.0351,11.74542 -0.39766,43.76308 -0.80556,71.15037 -0.4079,27.38728 -0.3782,51.37262 0.0659,53.30075 1.80565,7.83784 10.36536,11.02988 14.90921,5.55987 z m -74.08723,-130.3541 c -5.69936,-1.3777 -8.5473,-4.00256 -10.84764,-9.99797 -4.08269,-10.64065 -1.20986,-23.82622 6.06321,-27.82873 2.06117,-1.13431 9.46753,-2.51531 16.45858,-3.06892 10.49923,-0.8314 13.57063,-0.56212 17.65148,1.54758 6.50498,3.36293 9.19215,10.29979 8.43098,21.7643 -0.71668,10.79434 -4.38009,15.66906 -12.5842,16.74527 -11.99883,1.57396 -20.9029,1.87056 -25.17241,0.83847 z m 17.09853,-14.37085 c 7.60722,-0.99553 9.67183,-3.47107 7.91742,-9.49324 -0.7647,-2.62491 -2.07467,-2.9877 -10.78777,-2.9877 -10.48024,0 -13.20823,1.38842 -13.20823,6.72234 0,6.4605 2.86745,7.4875 16.07858,5.7586 z m -63.98959,15.90225 c 0.73529,-69.49329 0.89238,-72.90935 3.84736,-83.65573 6.32917,-23.01718 20.41671,-41.81431 39.36373,-52.52336 17.03197,-9.62664 27.77056,-12.30609 76.68791,-19.13489 32.27352,-4.50534 46.44169,-7.4702 48.99599,-10.25297 1.14891,-1.25167 -1.40308,-69.26817 -3.89655,-103.85285 l -0.84574,-11.73028 -4.30125,0.94844 c -18.84025,4.15434 -77.75218,7.74977 -150.33403,9.17499 -26.01852,0.51092 -49.15752,1.10779 -51.41999,1.32637 l -4.11359,0.39747 -0.86958,57.34455 c -1.59183,104.97576 -6.8745,141.03601 -26.96789,184.08627 -20.20327,43.28571 -60.37888,79.36459 -107.56852,96.59968 -5.09057,1.85924 -9.2556,3.63042 -9.2556,3.93598 0,0.30555 42.73001,0.38288 94.95559,0.17187 l 94.95558,-0.38371 z M 732.69771,543.25343 c -4.23992,-2.23664 -5.98402,-7.56707 -5.98402,-18.28864 0,-12.79303 2.72164,-16.59011 12.88272,-17.97321 4.27358,-0.58171 9.82438,-0.31876 13.01221,0.61643 4.95728,1.45425 5.72782,2.31232 7.11448,7.92268 0.85531,3.46047 1.27739,9.94018 0.93796,14.39934 -0.87294,11.46789 -4.89533,15.10812 -16.54104,14.96949 -4.67144,-0.0555 -9.81147,-0.79635 -11.42231,-1.64609 z m 14.67412,-11.75004 c 3.11493,-1.81619 3.50613,-7.77269 0.67837,-10.32943 -1.08563,-0.9816 -3.70806,-1.56808 -5.8276,-1.30331 -3.34978,0.41846 -3.90847,1.19756 -4.27243,5.95789 -0.32567,4.25975 0.13123,5.63181 2.0568,6.17558 4.06641,1.14838 4.5985,1.1122 7.36486,-0.50073 z m 28.02558,8.57421 c -4.03054,-4.39107 -4.62234,-6.12688 -5.47713,-16.06451 -0.52707,-6.12783 -0.7458,-21.70917 -0.48605,-34.62522 0.43204,-21.48356 0.71739,-23.75056 3.35045,-26.61672 4.28811,-4.66774 11.29333,-5.8328 35.30816,-5.87217 35.0503,-0.0575 35.59498,0.59456 36.32526,43.48511 0.76577,44.97505 1.07307,44.61653 -38.24385,44.61653 h -26.25801 z m 36.33066,-23.03197 c 0.37708,-0.3753 -1.09872,-2.35546 -3.27952,-4.40037 -2.18083,-2.04491 -5.9783,-8.29451 -8.43882,-13.88803 -2.46054,-5.59351 -5.03656,-10.54901 -5.7245,-11.01221 -1.21132,-0.81559 -5.86756,21.98367 -5.86756,28.73048 0,3.26537 0.23608,3.31323 11.31241,2.29373 6.22182,-0.57268 11.6209,-1.3483 11.99799,-1.7236 z m 8.23331,-13.53925 c 4.89869,-3.10299 8.90669,-6.58108 8.90669,-7.72907 0,-1.24659 -4.28017,-3.77757 -10.62679,-6.28391 l -10.62681,-4.19663 v 11.92571 c 0,8.56724 0.4844,11.92569 1.72011,11.92569 0.94606,0 5.72813,-2.5388 10.6268,-5.64179 z m -86.36467,-6.65074 c -5.39388,-3.10529 -7.03703,-8.15206 -6.56804,-20.17314 0.57721,-14.79486 1.79372,-15.93718 17.69091,-16.61203 7.80895,-0.33149 12.98398,0.0802 13.9273,1.10787 0.8256,0.89945 1.76134,7.56503 2.07939,14.81241 0.54118,12.33202 0.36032,13.45304 -2.82043,17.48165 -2.9694,3.76093 -4.50448,4.37011 -12.15342,4.82293 -5.45709,0.32306 -10.03578,-0.21923 -12.15571,-1.43969 z m 15.74177,-17.58452 c 0,-5.104 -0.13054,-5.22848 -5.4848,-5.22848 -4.69518,0 -5.54977,0.49953 -5.93602,3.46981 -0.80479,6.18833 0.68119,7.95493 6.2678,7.4515 4.89385,-0.44099 5.15302,-0.72731 5.15302,-5.69283 z m -242.03055,296.7509 c 61.02227,-10.56024 102.94903,-30.26415 132.92796,-62.47084 41.67804,-44.77516 53.48687,-95.36999 53.54779,-229.42504 l 0.0212,-46.68289 h -10.11705 -10.11708 l -0.90996,28.00974 c -0.50048,15.40535 -1.15996,31.03478 -1.46552,34.73206 -0.30555,3.69729 -0.93033,12.1002 -1.38839,18.67315 -5.05799,72.58224 -19.54927,116.44352 -48.07721,145.51709 -30.94803,31.53993 -74.95328,46.23534 -152.80156,51.02752 -55.05497,3.38907 -214.68274,2.40315 -280.41034,-1.73194 C 144.96938,710.93113 91.213223,702.27105 63.557317,693.53981 49.510432,689.10506 44.561922,686.52523 38.915048,680.69296 l -4.255559,-4.3953 -2.81894,7.17677 c -5.236666,13.33209 -10.645941,39.41469 -11.557225,55.72699 -0.372007,6.65876 -0.310934,6.76049 6.456677,10.75666 23.959261,14.14756 78.997239,23.1807 162.033239,26.59378 20.97597,0.86219 43.07446,1.77464 49.10774,2.02765 6.03327,0.25302 65.88615,0.34117 133.00638,0.19588 106.42005,-0.23035 123.87743,-0.58269 136.42057,-2.75337 z M 303.01297,754.13994 c -5.32656,-5.80302 -2.75293,-13.9651 5.15814,-16.35868 2.86393,-0.86651 19.22404,-1.55457 37.07434,-1.55921 25.89799,-0.007 32.71088,0.42118 35.97413,2.25962 6.82893,3.84725 7.14544,13.6498 0.54651,16.92542 -2.33619,1.15964 -15.29118,1.72055 -39.73844,1.72055 -34.44402,0 -36.41052,-0.15059 -39.01468,-2.9877 z m 133.69198,-56.75645 c 108.11389,-4.56565 158.94472,-22.86988 186.7067,-67.23329 21.35785,-34.12965 28.82487,-83.78642 31.33656,-208.3924 2.20417,-109.35072 -8.0786,-247.36358 -23.22916,-311.77594 C 624.97172,82.145967 615.20536,58.446971 608.7905,54.828875 582.93836,40.247757 543.53463,27.768025 510.74973,23.777945 464.01094,18.08961 316.77513,21.833025 248.16498,30.454061 157.39935,41.858996 99.234426,79.264311 61.968493,150.19523 c -21.136797,40.23116 -30.509537,78.7605 -38.624406,158.77673 -4.020837,39.64734 -5.518584,130.355 -2.784907,168.66193 1.536554,21.53161 7.046349,60.10963 11.648329,81.55833 6.450808,30.06562 23.518268,92.10152 29.078538,105.69317 3.312641,8.09748 3.919328,8.72412 10.525508,10.87112 18.343965,5.96182 66.444305,14.05933 102.346475,17.22965 58.64059,5.17821 191.40159,7.40179 262.54692,4.39733 z M 281.37149,652.48991 c -33.10137,-2.95466 -56.81028,-11.35579 -77.7705,-27.55757 -26.3252,-20.34876 -43.32425,-56.13742 -48.60976,-102.3395 -2.09425,-18.30642 -4.6598,-157.09957 -3.70019,-200.17621 1.06495,-47.80619 3.79851,-67.50811 12.85045,-92.61884 10.45372,-28.99937 32.52453,-55.57907 57.48976,-69.23454 31.7839,-17.38513 51.29418,-19.61294 153.3697,-17.51272 77.01176,1.58453 83.02269,2.17199 106.26799,10.38573 43.87738,15.50408 75.39842,54.03356 87.04236,106.3955 7.92931,35.6575 8.26179,41.56405 8.1897,145.49367 -0.0724,104.35715 -1.17168,128.80122 -6.94308,154.38626 -4.23973,18.7951 -7.05221,26.1581 -14.91124,39.03719 -19.19586,31.45752 -51.10403,48.82046 -98.7672,53.74452 -17.06973,1.76347 -154.74342,1.76072 -174.50799,-0.003 z m 186.87105,-21.26327 c 19.43804,-4.02861 24.42712,-5.73272 38.85998,-13.27336 27.92836,-14.5916 41.98866,-37.38314 47.60762,-77.17131 4.01951,-28.46248 6.13427,-166.10898 3.33195,-216.87149 -2.38095,-43.12936 -7.32883,-67.49523 -18.80777,-92.61884 -6.87065,-15.03759 -9.31455,-18.7623 -19.60318,-29.87705 -13.33209,-14.40255 -22.40668,-20.78411 -39.49194,-27.77211 -23.39163,-9.56732 -27.9582,-9.9843 -116.79344,-10.66424 -67.32847,-0.51535 -82.46658,-0.2445 -94.22931,1.68592 -15.58838,2.55825 -34.49701,9.67729 -46.36043,17.45456 -22.57336,14.79833 -39.90585,40.71477 -47.21595,70.59974 -5.57559,22.79403 -6.22501,35.49049 -6.08664,118.99529 0.15773,95.19398 2.0871,149.15465 5.95963,166.68037 9.5438,43.1919 28.62292,69.46251 61.16684,84.22245 23.7182,10.75712 36.71422,11.80666 139.79226,11.28947 65.52136,-0.32875 82.98613,-0.83811 91.87038,-2.6794 z M 280.97642,616.59657 c -29.49189,-2.66236 -51.11342,-12.04681 -66.5195,-28.87167 -11.46833,-12.52445 -16.93163,-23.65946 -21.6952,-44.21813 -4.6365,-20.0103 -6.0167,-42.54348 -7.82332,-127.72437 -2.65183,-125.03269 -0.52296,-152.01218 14.56191,-184.54367 5.43449,-11.71986 23.56828,-30.82787 35.63827,-37.55295 24.21592,-13.49246 34.21316,-14.71916 118.60877,-14.5536 73.63294,0.14445 91.81088,1.14417 108.85491,5.98663 19.61772,5.57367 32.82556,13.61238 46.25134,28.14998 10.04348,10.87519 12.74795,14.92314 18.02944,26.98596 13.55344,30.95571 16.40084,60.3202 16.22374,167.31147 -0.19469,117.64322 -2.14476,142.82839 -12.75973,164.79274 -13.20103,27.31536 -38.62118,40.76368 -83.70847,44.28529 -22.47017,1.75507 -146.08658,1.71949 -165.66216,-0.0476 z m 63.89515,-16.25818 c -0.44574,-0.78574 -1.71624,-1.04992 -2.82333,-0.5871 -2.83442,1.18497 -2.50041,2.01571 0.81046,2.01571 1.55282,0 2.45862,-0.64287 2.01287,-1.42861 z m 46.89802,0.52608 c -0.45564,-0.49639 -1.63831,-0.54945 -2.62814,-0.11787 -1.09385,0.47687 -0.76893,0.83085 0.82844,0.90253 1.44547,0.0648 2.25534,-0.28821 1.7997,-0.7846 z m -59.43538,-6.57102 c 6.41497,-7.73576 6.45511,-12.29703 0.16515,-18.75988 -2.63649,-2.70893 -6.60955,-6.33408 -8.82905,-8.05585 l -4.03543,-3.13052 -6.91825,6.69398 c -3.80501,3.6817 -8.16199,7.41916 -9.68214,8.3055 -4.76363,2.77746 -3.52957,8.90812 3.06368,15.2201 5.22565,5.00272 6.62552,5.58556 13.55244,5.64268 7.30346,0.0602 7.99533,-0.26249 12.6836,-5.91601 z m 47.3239,0.69924 c 2.97197,-3.68767 4.25564,-6.80971 4.25564,-10.35026 0,-5.42191 -0.82211,-6.62636 -10.29538,-15.08334 l -6.11375,-5.45788 -6.53583,5.82956 c -3.5947,3.20627 -8.23269,6.99094 -10.30662,8.41037 -6.16533,4.21966 -5.19442,10.04561 2.74239,16.45583 5.57548,4.50309 7.62788,5.27598 14.25556,5.36831 7.1999,0.10039 8.04051,-0.26207 11.99799,-5.17259 z m 46.02952,0.64416 c 3.95304,-3.78128 4.84691,-5.68423 4.84691,-10.31853 0,-4.94341 -0.9107,-6.57428 -7.00429,-12.543 -3.85237,-3.77342 -8.06409,-6.86077 -9.35939,-6.86077 -1.29529,0 -3.85097,1.74455 -5.6793,3.87679 -1.82832,2.13223 -5.94663,5.55728 -9.15181,7.61121 -6.43691,4.12488 -7.75123,9.17247 -3.428,13.16517 7.87304,7.2711 12.26426,9.56195 18.46348,9.63218 5.32997,0.0603 7.31673,-0.741 11.3124,-4.56305 z m -138.56535,-1.45372 c 3.98858,-5.16416 4.63071,-11.93914 1.45908,-15.39448 -5.20801,-5.67385 -14.14521,-12.8741 -15.97979,-12.8741 -1.11064,0 -3.51525,1.74455 -5.34358,3.87679 -1.82832,2.13223 -5.94663,5.55728 -9.15181,7.61121 -3.20518,2.05393 -5.81918,4.51084 -5.80889,5.45979 0.0798,7.34676 4.74364,11.23427 17.12129,14.27114 10.49459,2.57486 13.87083,2.01221 17.7037,-2.95035 z m 174.94985,3.00658 c 12.12883,-2.13248 15.0832,-4.43417 15.0832,-11.75107 0,-5.08814 -0.86237,-6.64726 -7.00429,-12.66332 -3.85237,-3.77342 -7.94261,-6.86077 -9.0894,-6.86077 -1.14683,0 -4.50694,2.38368 -7.46692,5.29705 -2.95999,2.91339 -6.85734,6.02949 -8.66076,6.92469 -6.36517,3.15958 -5.54991,10.55108 1.81765,16.47962 5.94359,4.78267 4.31411,4.50892 15.32052,2.5738 z m 44.10886,-20.42245 c 3.52046,-3.72056 6.09519,-7.6325 5.72157,-8.69318 -1.48365,-4.21218 -4.81748,-3.33581 -11.34803,2.98303 -3.71991,3.59934 -8.03834,6.98504 -9.59651,7.52383 -2.14271,0.74091 -2.83308,2.23659 -2.83308,6.13779 v 5.15819 l 5.8276,-3.1725 c 3.20517,-1.74488 8.70798,-6.2166 12.22845,-9.93716 z m -263.50081,6.50042 c 0,-5.58725 -15.70075,-20.05494 -19.87181,-18.31119 -2.94187,1.22988 -2.5867,3.04415 1.67645,8.56384 3.55569,4.60366 14.73548,13.30816 17.09261,13.30816 0.60652,0 1.10275,-1.60237 1.10275,-3.56081 z m 13.16347,-17.17091 c 9.76526,-7.85083 11.51812,-10.35461 11.51812,-16.45242 0,-5.17545 -0.74237,-6.33226 -8.11139,-12.63954 -4.46128,-3.8185 -8.56273,-6.94271 -9.11437,-6.94271 -0.55165,0 -3.53469,2.2536 -6.62901,5.00797 -3.09431,2.7544 -7.63139,6.13283 -10.08241,7.50763 -3.47916,1.95149 -4.45641,3.4517 -4.45641,6.84112 0,3.21201 1.15936,5.21677 4.45641,7.70599 2.45102,1.8505 6.77207,5.59357 9.60235,8.31793 2.83027,2.72435 5.66862,4.95337 6.30746,4.95337 0.63884,0 3.56799,-1.9347 6.50925,-4.29934 z m 145.91578,-4.54639 c 6.73569,-6.88946 8.18252,-10.98849 6.03279,-17.09171 -0.44173,-1.25408 -4.14399,-5.02813 -8.22721,-8.38676 l -7.42406,-6.10659 -7.1988,5.83889 c -3.95934,3.2114 -8.58714,6.61799 -10.28399,7.57022 -2.10158,1.17932 -3.08521,3.08316 -3.08521,5.97141 0,3.43527 1.75681,5.78427 9.2556,12.3755 5.70886,5.01791 10.18282,7.88356 11.67528,7.47821 1.33083,-0.36145 5.49585,-3.80359 9.2556,-7.64917 z m -95.68905,2.19922 c 6.8376,-5.68791 7.91218,-7.71372 7.91218,-14.91616 0,-4.19956 -1.16908,-5.88658 -8.32214,-12.00903 l -8.32215,-7.12308 -3.67585,3.6951 c -2.02172,2.03229 -6.60679,5.84305 -10.18904,8.46833 -6.51867,4.77726 -7.15155,6.07515 -5.36363,10.99987 1.4155,3.89894 15.5352,15.81768 18.87844,15.93569 1.58841,0.056 5.6754,-2.21676 9.08219,-5.05072 z m 46.51885,-0.18749 c 7.83461,-7.02294 9.38533,-9.36779 9.38533,-14.19163 0,-3.9981 -6.01898,-11.22403 -14.23385,-17.08808 -3.41432,-2.43726 -3.6329,-2.36247 -10.05418,3.44065 -3.61019,3.26265 -7.9523,6.70847 -9.64917,7.6574 -2.24279,1.25419 -3.0778,3.03659 -3.05812,6.52775 0.0226,4.02242 1.30332,5.93459 7.88441,11.7725 4.32153,3.83352 9.18727,7.02662 10.81278,7.09579 1.62551,0.0691 5.63626,-2.27731 8.9128,-5.21438 z m 95.62262,-1.52062 c 6.12092,-5.99551 7.0043,-7.5859 7.0043,-12.61043 0,-5.26641 -0.69287,-6.33051 -8.24364,-12.6604 l -8.24362,-6.91073 -5.70145,5.31674 c -3.13578,2.92422 -7.45492,6.16235 -9.59807,7.19587 -4.40879,2.12607 -5.78476,5.27574 -4.23655,9.6977 1.50718,4.30478 15.5791,16.66346 19.07783,16.7551 1.63005,0.0427 6.05362,-2.97594 9.9412,-6.78385 z m 45.38291,1.50151 c 7.67611,-6.64706 8.1953,-7.55311 8.22118,-14.34697 0.019,-4.9959 -0.76313,-6.17196 -8.31482,-12.50264 l -8.33582,-6.98801 -4.34778,4.48317 c -2.39127,2.46574 -6.9702,6.25171 -10.17538,8.41329 -5.69361,3.83975 -7.01195,7.01324 -4.62082,11.12321 2.28617,3.92959 15.98254,14.9749 18.67562,15.06077 1.50832,0.0481 5.51235,-2.31118 8.89782,-5.24282 z m 28.16805,-19.01645 0.9658,-5.60864 -4.8386,3.1102 c -5.67016,3.64475 -6.83877,6.15898 -5.13363,11.045 2.80348,8.03327 6.80535,4.23573 9.00643,-8.54656 z M 219.0963,548.2956 c -0.31643,-3.97498 -1.73497,-6.36357 -6.10974,-10.2879 l -5.69763,-5.11095 1.17479,5.69624 c 1.29953,6.30121 4.61396,15.50564 6.20257,17.22509 2.09236,2.2647 4.83801,-2.39762 4.43001,-7.52248 z m 14.70582,-18.25952 c 7.5742,-5.67733 10.24926,-9.81746 10.24926,-15.86254 0,-4.00564 -1.33286,-5.98012 -8.34712,-12.36534 -4.59089,-4.17921 -9.09765,-7.59856 -10.015,-7.59856 -0.91735,0 -3.73801,2.32686 -6.26815,5.1708 -2.53014,2.84394 -6.66194,6.23665 -9.18179,7.53935 -3.86406,1.99763 -4.58153,3.16042 -4.58153,7.42522 0,4.01827 0.91514,5.74824 4.4564,8.42434 2.45102,1.85221 6.48325,5.25915 8.96051,7.57097 5.67081,5.29213 7.30628,5.25834 14.72742,-0.30424 z m 44.25455,2.39425 c 4.74338,-2.70729 12.05947,-11.15794 13.17916,-15.22294 1.38058,-5.01208 -0.71074,-8.76451 -9.04074,-16.22181 l -7.79151,-6.9752 -7.61736,6.75942 c -4.18957,3.71768 -8.85917,7.48345 -10.37691,8.36839 -5.36965,3.13079 -3.43538,8.21393 6.49607,17.07131 5.09058,4.54004 9.74902,8.27251 10.35209,8.29439 0.60306,0.0218 2.76271,-0.91124 4.7992,-2.07356 z m 51.22216,-3.29272 c 7.61429,-6.90964 7.96796,-7.56896 7.99315,-14.90058 0.0188,-5.47827 -0.65725,-6.73273 -6.49221,-12.04686 -9.79537,-8.92101 -9.43075,-8.87364 -16.17494,-2.10099 -3.36162,3.37579 -7.65351,6.90297 -9.53755,7.83818 -2.59983,1.29053 -3.42551,2.83668 -3.42551,6.41453 0,3.9659 1.36022,5.93559 8.57,12.40978 4.71349,4.2326 9.59143,7.71732 10.83986,7.74381 1.24842,0.0264 4.95066,-2.38454 8.2272,-5.35787 z m 46.15255,0.95414 c 7.58893,-5.98914 10.12507,-10.55511 9.5998,-17.2832 -0.36796,-4.71298 -1.5855,-6.52087 -8.23133,-12.22242 l -7.7995,-6.69131 -7.64659,6.78603 c -4.20562,3.73232 -8.87162,7.20961 -10.36889,7.72734 -1.96471,0.67936 -2.72231,2.265 -2.72231,5.69776 0,4.10615 1.26542,5.8225 9.2556,12.55377 5.09057,4.28853 9.93431,7.81681 10.76386,7.84063 0.82955,0.0237 4.04676,-1.96005 7.14936,-4.4086 z m 46.52462,0.0758 c 7.38066,-5.82475 9.94975,-10.1204 9.94975,-16.63647 0,-4.6246 -0.9447,-6.26954 -6.51321,-11.341 -9.47904,-8.63294 -9.12559,-8.5923 -16.25621,-1.86875 -3.58679,3.38202 -7.9525,6.85949 -9.70161,7.72772 -2.36066,1.17181 -3.18017,2.80914 -3.18017,6.35383 0,4.13106 1.23891,5.81166 9.18379,12.45797 5.05109,4.22549 9.5863,7.68271 10.07826,7.68271 0.49196,0 3.3897,-1.9692 6.4394,-4.37601 z m 43.95503,2.26269 c 6.95524,-3.96972 12.86723,-12.06764 13.01717,-17.83023 0.15509,-5.96119 -1.69324,-8.71295 -10.45885,-15.57103 l -5.93126,-4.64052 -7.43177,6.6471 c -4.08748,3.65592 -8.5116,7.02212 -9.83138,7.48048 -1.63258,0.567 -2.3996,2.37666 -2.3996,5.66153 0,4.11157 1.27195,5.96226 8.57,12.46939 4.71349,4.20268 9.06342,7.6987 9.6665,7.76893 0.60306,0.0702 2.7627,-0.82333 4.79919,-1.98565 z m 51.49751,-3.18359 c 6.17967,-5.14059 6.36758,-5.53329 6.36758,-13.30624 0,-7.73326 -0.23929,-8.24372 -6.94301,-14.81007 l -6.94302,-6.80074 -7.35612,6.52762 c -4.04588,3.59017 -8.63452,6.96962 -10.19698,7.50988 -2.13651,0.73876 -2.84086,2.2359 -2.84086,6.03837 0,4.26541 0.91128,5.74087 5.82761,9.43548 3.20517,2.4087 7.00304,5.80217 8.43972,7.54102 3.63201,4.39602 6.2944,3.97939 13.64508,-2.13532 z M 213.39435,491.85336 c 6.49276,-6.04311 7.34663,-7.498 7.34663,-12.5178 0,-5.69063 -1.46585,-7.52447 -14.74039,-18.44084 -1.34986,-1.11005 -1.714,2.75524 -1.714,18.19349 0,10.78164 0.39625,19.60299 0.88056,19.60299 0.48431,0 4.18655,-3.07704 8.2272,-6.83784 z m 48.16338,-3.4e-4 c 6.26465,-5.97035 7.17525,-7.55008 7.17525,-12.44772 0,-5.79222 0.116,-5.64534 -14.55856,-18.42388 -2.91084,-2.53474 -3.16816,-2.44241 -9.64204,3.45919 -3.65828,3.33487 -8.34827,7.04491 -10.42219,8.24453 -2.75438,1.59321 -3.77081,3.32128 -3.77081,6.41089 0,3.45801 1.67561,5.63146 9.1838,11.91246 5.05108,4.22549 10.46078,7.68271 12.02154,7.68271 1.56077,0 6.06661,-3.07719 10.01301,-6.83818 z m 46.79174,-0.0225 c 6.08195,-5.95735 7.0043,-7.60534 7.0043,-12.51481 0,-5.05158 -0.82033,-6.38976 -7.69912,-12.55931 -4.23453,-3.79791 -8.24351,-6.9053 -8.90885,-6.9053 -0.66536,0 -3.5254,2.26122 -6.35568,5.02492 -2.83026,2.76368 -7.15132,6.14212 -9.60234,7.50762 -5.97125,3.32664 -6.02412,8.70212 -0.13884,14.11813 2.37467,2.18531 6.23117,5.80224 8.57001,8.03761 2.33883,2.23536 5.57403,4.084 7.18933,4.1081 1.61529,0.024 6.08883,-3.04357 9.94119,-6.81699 z m 45.61095,1.52062 c 8.03195,-7.19982 9.38534,-9.35268 9.38534,-14.92941 0,-3.96571 -1.28472,-5.91226 -7.69913,-11.6653 -4.23452,-3.79794 -8.1922,-6.90533 -8.79485,-6.90533 -0.60266,0 -5.46047,3.52923 -10.79512,7.84272 -8.33973,6.74333 -9.68919,8.47096 -9.62661,12.32428 0.0596,3.67489 1.57953,5.75878 8.44371,11.57736 4.60404,3.90269 9.44158,7.0958 10.75015,7.0958 1.30855,0 5.05998,-2.40307 8.33651,-5.34015 z m 43.70303,2.87363 c 8.55116,-6.22126 12.3031,-11.44541 12.3031,-17.13079 0,-4.84576 -0.92907,-6.45195 -7.17524,-12.40469 -3.9464,-3.76101 -7.69904,-6.83819 -8.33925,-6.83819 -0.64018,0 -3.73598,2.2691 -6.87954,5.04246 -3.14357,2.77335 -7.72095,6.15178 -10.17197,7.50761 -5.93383,3.28247 -5.96923,8.40523 -0.0964,13.9543 2.39801,2.26578 6.25451,5.94854 8.57001,8.18391 4.91178,4.74176 7.14869,5.06153 11.78933,1.68536 z m 46.62078,0 c 8.55118,-6.22126 12.30311,-11.44541 12.30311,-17.13079 0,-4.84576 -0.92907,-6.45195 -7.17525,-12.40469 -3.94639,-3.76101 -7.84958,-6.83819 -8.67378,-6.83819 -0.82418,0 -2.99442,1.74455 -4.82276,3.87679 -1.82831,2.13223 -5.94662,5.55728 -9.15181,7.61121 -8.79351,5.63503 -8.19315,9.9593 2.73661,19.71103 4.71033,4.20263 9.20084,7.64113 9.97891,7.64113 0.77808,0 2.94033,-1.10994 4.80497,-2.46652 z m 50.81753,-3.00865 c 7.12707,-5.92133 10.24759,-11.91191 8.99972,-17.27708 -0.68032,-2.925 -12.29491,-14.46361 -15.90838,-15.80433 -0.68686,-0.25485 -3.60559,1.83831 -6.48609,4.65144 -2.88051,2.81315 -7.24265,6.23202 -9.69367,7.59752 -7.11444,3.96353 -6.1907,8.95063 3.40934,18.40667 4.34668,4.28145 9.06991,7.81068 10.49605,7.84272 1.42615,0.0319 5.55852,-2.40559 9.18303,-5.41694 z m 30.04557,-12.48144 v -11.98119 l -5.48481,3.04842 c -4.68287,2.60273 -5.4866,3.75383 -5.49715,7.87309 -0.0101,3.62721 1.09676,5.8343 4.4564,8.89257 2.45781,2.23735 4.93154,4.08598 5.49715,4.1081 0.56562,0.0221 1.02841,-5.35136 1.02841,-11.94099 z M 234.59861,459.25335 c 3.31362,-2.79359 7.09855,-6.49088 8.41095,-8.21618 1.7802,-2.34031 3.95962,-3.13694 8.58192,-3.13694 5.60411,0 6.98178,0.78729 14.4279,8.24502 l 8.23216,8.24504 4.27684,-2.40945 c 2.35225,-1.32521 6.71192,-5.11598 9.68816,-8.42394 5.10901,-5.67845 5.77753,-5.97614 11.96546,-5.32837 5.58855,0.58502 7.32299,1.61327 11.77309,6.97959 2.87041,3.46142 6.34642,6.95087 7.72443,7.75431 3.22577,1.88083 8.45069,-1.019 14.79723,-8.21242 4.35783,-4.93933 5.34467,-5.35593 12.68717,-5.35593 7.56592,0 8.21139,0.30099 12.98194,6.05376 9.07738,10.94633 11.29017,10.77221 22.58079,-1.77682 4.60685,-5.1203 5.93821,-5.77079 11.81114,-5.77079 6.12834,0 7.11969,0.55373 13.37196,7.46925 4.16689,4.60893 7.9449,7.46926 9.86558,7.46926 1.87571,0 5.71052,-2.80737 9.64994,-7.06452 6.21799,-6.7195 6.90747,-7.06378 14.11697,-7.04908 7.27178,0.0149 7.82203,0.30185 13.54384,7.06453 7.72366,9.12866 10.39076,9.07268 20.01246,-0.42019 6.68256,-6.59308 8.28174,-7.46925 13.63281,-7.46925 5.495,0 6.66954,0.69884 12.55345,7.46925 7.7564,8.92501 11.39595,9.48382 18.75092,2.87896 l 5.11161,-4.59033 V 439.57529 425.49244 H 364.03136 202.91539 v 11.04194 c 0,10.20385 0.23418,11.10629 3.0852,11.8896 1.69685,0.46621 6.76072,4.23637 11.25305,8.37813 4.49231,4.14178 8.87712,7.53049 9.74402,7.53049 0.86688,0 4.28732,-2.28567 7.60095,-5.07925 z M 524.75172,357.1487 c -0.79925,-49.78483 -2.1764,-68.0214 -6.54047,-86.61106 -9.64383,-41.07987 -35.03636,-64.14614 -76.0215,-69.05703 -14.2808,-1.71115 -158.43678,-2.47166 -168.65757,-0.88979 -7.6644,1.18622 -22.52261,6.0455 -28.79519,9.41725 -7.44308,4.00094 -18.43586,13.79836 -23.84198,21.24936 -6.86186,9.4574 -13.6513,27.33266 -16.15631,42.53636 -2.15345,13.06993 -4.2932,115.71983 -2.61531,125.46376 l 0.91627,5.32095 h 161.23675 161.23675 z m 168.58536,17.92622 C 691.86359,298.36044 689.42304,254.20464 683.44965,196.18612 672.65315,91.321192 658.65459,42.066656 635.43417,27.241337 c -6.71926,-4.289969 -16.12293,-5.154298 -24.24406,-2.228349 -6.31197,2.274121 -6.54256,4.036076 -0.71085,5.431513 5.9482,1.423297 18.32746,15.395193 24.07474,27.172053 14.49984,29.7119 25.25302,87.740966 32.45997,175.168936 4.84957,58.83064 6.22293,90.02355 6.22293,141.34106 v 45.20741 l 5.8276,0.81851 c 3.20517,0.45017 7.37019,1.07204 9.2556,1.38194 1.88539,0.30991 3.99048,0.65501 4.678,0.76689 0.74646,0.12145 0.88302,-18.90278 0.33898,-47.22638 z m 94.395,44.45778 c 88.33582,-2.54506 128.67898,-5.86485 133.36937,-10.97481 1.84543,-2.0105 1.73715,-6.03038 -0.99929,-37.10223 C 913.79268,299.81275 904.80469,257.13325 885.69357,208.0665 857.09528,134.64195 808.8216,81.950063 743.48313,52.840439 725.55284,44.852138 699.0043,36.611824 683.42124,34.198029 c -5.97847,-0.926055 -12.19697,-1.994517 -13.81888,-2.37436 -2.83169,-0.66318 -2.78759,-0.366083 1.10929,7.472309 23.49889,47.266921 38.45649,167.152922 41.80032,335.032022 l 0.92983,46.68288 11.77794,-0.009 c 6.47787,-0.004 34.60842,-0.66599 62.51234,-1.46994 z"
       id="path1" />
  </g>
</svg>
