<?xml version="1.0"?>
<svg width="382" height="382" viewBox="0 0 382 382" xmlns="http://www.w3.org/2000/svg" xmlns:svg="http://www.w3.org/2000/svg">
 <g class="layer">
  <path d="m111.73,67.59c-1,0.25 -2.99,0.75 -4.49,1.5c-1.5,0.75 -2.99,1.99 -4.49,2.99c-1.5,1 -3.24,1.75 -4.49,2.99c-1.24,1.24 -1.99,2.99 -2.99,4.49c-1,1.5 -2.24,2.99 -2.99,4.49c-0.75,1.5 -0.75,2.99 -1.5,4.49c-0.75,1.5 -1.99,2.99 -2.99,4.49c-1,1.5 -2.24,2.99 -2.99,4.49c-0.75,1.5 -0.75,2.99 -1.5,4.49c-0.75,1.5 -2.24,2.99 -2.99,4.49c-0.75,1.5 -0.75,2.99 -1.5,4.49c-0.75,1.5 -2.24,2.99 -2.99,4.49c-0.75,1.5 -1,2.99 -1.5,4.49c-0.49,1.5 -0.75,2.99 -1.5,4.49c-0.75,1.5 -2.24,2.99 -2.99,4.49c-0.75,1.5 -1,2.99 -1.5,4.49c-0.49,1.5 -0.75,2.99 -1.5,4.49c-0.75,1.5 -2.24,2.99 -2.99,4.49c-0.75,1.5 -1,2.99 -1.5,4.49c-0.49,1.5 -1,2.99 -1.5,4.49c-0.49,1.5 -0.75,2.99 -1.5,4.49c-0.75,1.5 -2.24,2.99 -2.99,4.49c-0.75,1.5 -1,2.99 -1.5,4.49c-0.49,1.5 -1,2.99 -1.5,4.49c-0.49,1.5 -1,2.99 -1.5,4.49c-0.49,1.5 -1,2.99 -1.5,4.49c-0.49,1.5 -1,2.99 -1.5,4.49c-0.49,1.5 -0.75,2.99 -1.5,4.49c-0.75,1.5 -2.24,2.99 -2.99,4.49c-0.75,1.5 -1,2.99 -1.5,4.49c-0.49,1.5 -1,2.99 -1.5,4.49c-0.49,1.5 -1,2.99 -1.5,4.49c-0.49,1.5 -1,2.99 -1.5,4.49c-0.49,1.5 -1,2.99 -1.5,4.49c-0.49,1.5 -1,2.99 -1.5,4.49c-0.49,1.5 -1,2.99 -1.5,4.49c-0.49,1.5 -1,2.99 -1.5,4.49c-0.49,1.5 -1,2.99 -1.5,4.49c-0.49,1.5 -1,2.99 -1.5,4.49c-0.49,1.5 -1,2.99 -1.5,4.49c-0.49,1.5 -1,2.99 -1.5,4.49c-0.49,1.5 -1,2.99 -1.5,4.49c-0.49,1.5 -1.24,2.99 -1.5,4.49c-0.25,1.5 0.25,2.99 0,4.49c-0.25,1.5 -1,2.99 -1.5,4.49c-0.49,1.5 -1,2.99 -1.5,4.49c-0.49,1.5 -1,2.99 -1.5,4.49c-0.49,1.5 -1.24,2.99 -1.5,4.49c-0.25,1.5 0.25,2.99 0,4.49c-0.25,1.5 -1.24,2.99 -1.5,4.49c-0.25,1.5 0,2.99 0,4.49c0,1.5 -0.25,2.99 0,4.49c0.25,1.5 1,2.99 1.5,4.49c0.49,1.5 0.75,2.99 1.5,4.49c0.75,1.5 1.75,3.24 2.99,4.49c1.24,1.24 2.99,2.24 4.49,2.99c1.5,0.75 2.99,1 4.49,1.5c1.5,0.49 2.99,1 4.49,1.5c1.5,0.49 2.99,1.24 4.49,1.5c1.5,0.25 2.99,-0.25 4.49,0c1.5,0.25 2.99,1.24 4.49,1.5c1.5,0.25 2.99,-0.25 4.49,0c1.5,0.25 2.99,1.24 4.49,1.5c1.5,0.25 2.99,0 4.49,0c1.5,0 2.99,0 4.49,0c1.5,0 2.99,-0.25 4.49,0c1.5,0.25 2.99,1.24 4.49,1.5c1.5,0.25 2.99,0 4.49,0c1.5,0 2.99,0 4.49,0c1.5,0 2.99,0 4.49,0c1.5,0 2.99,0 4.49,0c1.5,0 2.99,0 4.49,0c1.5,0 2.99,0 4.49,0c1.5,0 2.99,0 4.49,0c1.5,0 2.99,0 4.49,0c1.5,0 2.99,0 4.49,0c1.5,0 2.99,0 4.49,0c1.5,0 2.99,0 4.49,0c1.5,0 2.99,0 4.49,0c1.5,0 2.99,0 4.49,0c1.5,0 2.99,0 4.49,0c1.5,0 2.99,0 4.49,0c1.5,0 2.99,0 4.49,0c1.5,0 2.99,0.25 4.49,0c1.5,-0.25 2.99,-1.24 4.49,-1.5c1.5,-0.25 2.99,0 4.49,0c1.5,0 2.99,0 4.49,0c1.5,0 2.99,0.25 4.49,0c1.5,-0.25 2.99,-1.24 4.49,-1.5c1.5,-0.25 2.99,0.25 4.49,0c1.5,-0.25 2.99,-1.24 4.49,-1.5c1.5,-0.25 2.99,0.25 4.49,0c1.5,-0.25 2.99,-1 4.49,-1.5c1.5,-0.49 2.99,-0.75 4.49,-1.5c1.5,-0.75 2.99,-1.99 4.49,-2.99c1.5,-1 3.24,-1.75 4.49,-2.99c1.24,-1.24 2.24,-2.99 2.99,-4.49c0.75,-1.5 1.24,-2.99 1.5,-4.49c0.25,-1.5 0,-2.99 0,-4.49c0,-1.5 0,-2.99 0,-4.49c0,-1.5 0.25,-2.99 0,-4.49c-0.25,-1.5 -1.24,-2.99 -1.5,-4.49c-0.25,-1.5 0.25,-2.99 0,-4.49c-0.25,-1.5 -1,-2.99 -1.5,-4.49c-0.49,-1.5 -1,-2.99 -1.5,-4.49c-0.49,-1.5 -1,-2.99 -1.5,-4.49c-0.49,-1.5 -0.75,-3.48 -1.5,-4.49c-0.75,-1 -1.75,-1.75 -2.99,-1.5c-1.24,0.25 -2.99,2.24 -4.49,2.99c-1.5,0.75 -2.99,0.75 -4.49,1.5c-1.5,0.75 -2.99,2.24 -4.49,2.99c-1.5,0.75 -2.99,0.75 -4.49,1.5c-1.5,0.75 -2.99,2.24 -4.49,2.99c-1.5,0.75 -2.99,1 -4.49,1.5c-1.5,0.49 -2.99,1.24 -4.49,1.5c-1.5,0.25 -2.99,-0.25 -4.49,0c-1.5,0.25 -2.99,1.24 -4.49,1.5c-1.5,0.25 -2.99,0.25 -4.49,0c-1.5,-0.25 -2.99,-1 -4.49,-1.5c-1.5,-0.49 -2.99,-0.49 -4.49,-1.5c-1.5,-1 -2.99,-2.99 -4.49,-4.49c-1.5,-1.5 -3.24,-2.99 -4.49,-4.49c-1.24,-1.5 -2.24,-2.99 -2.99,-4.49c-0.75,-1.5 -1,-2.99 -1.5,-4.49c-0.49,-1.5 -1,-2.99 -1.5,-4.49c-0.49,-1.5 -1,-2.99 -1.5,-4.49c-0.49,-1.5 -1,-2.99 -1.5,-4.49c-0.49,-1.5 -1,-2.99 -1.5,-4.49c-0.49,-1.5 -1,-2.99 -1.5,-4.49c-0.49,-1.5 -1.24,-2.99 -1.5,-4.49c-0.25,-1.5 0.25,-2.99 0,-4.49c-0.25,-1.5 -1,-2.99 -1.5,-4.49c-0.49,-1.5 -1.24,-2.99 -1.5,-4.49c-0.25,-1.5 0.25,-2.99 0,-4.49c-0.25,-1.5 -1,-2.99 -1.5,-4.49c-0.49,-1.5 -1.24,-2.99 -1.5,-4.49c-0.25,-1.5 0.25,-2.99 0,-4.49c-0.25,-1.5 -1.24,-2.99 -1.5,-4.49c-0.25,-1.5 0.25,-2.99 0,-4.49c-0.25,-1.5 -1.24,-2.99 -1.5,-4.49c-0.25,-1.5 0.25,-2.99 0,-4.49c-0.25,-1.5 -1.24,-2.99 -1.5,-4.49c-0.25,-1.5 0,-2.99 0,-4.49c0,-1.5 0.25,-2.99 0,-4.49c-0.25,-1.5 -1.24,-2.99 -1.5,-4.49c-0.25,-1.5 0.25,-2.99 0,-4.49c-0.25,-1.5 -1.24,-2.99 -1.5,-4.49c-0.25,-1.5 0,-2.99 0,-4.49c0,-1.5 0.25,-2.99 0,-4.49c-0.25,-1.5 -1.24,-2.99 -1.5,-4.49c-0.25,-1.5 0,-2.99 0,-4.49c0,-1.5 0.25,-2.99 0,-4.49c-0.25,-1.5 -1.24,-2.99 -1.5,-4.49c-0.25,-1.5 0,-2.99 0,-4.49c0,-1.5 0,-2.99 0,-4.49c0,-1.5 0,-2.99 0,-4.49c0,-1.5 0,-2.99 0,-4.49c0,-1.5 0,-2.99 0,-4.49c0,-1.5 0,-2.99 0,-4.49c0,-1.5 0,-2.99 0,-4.49c0,-1.5 -0.25,-2.99 0,-4.49c0.25,-1.5 1,-2.99 1.5,-4.49c0.49,-1.5 1,-2.99 1.5,-4.49c0.49,-1.5 1,-2.99 1.5,-4.49c0.49,-1.5 1.5,-3.74 1.5,-4.49c0,-0.75 -0.49,-0.25 -1.5,0zm17.94,-7.48c0,0.75 0.49,2.99 1.5,4.49c1,1.5 2.99,2.99 4.49,4.49c1.5,1.5 3.48,2.99 4.49,4.49c1,1.5 0.75,2.99 1.5,4.49c0.75,1.5 1.99,2.99 2.99,4.49c1,1.5 1.99,2.99 2.99,4.49c1,1.5 2.24,2.99 2.99,4.49c0.75,1.5 0.75,2.99 1.5,4.49c0.75,1.5 2.24,2.99 2.99,4.49c0.75,1.5 1,2.99 1.5,4.49c0.49,1.5 0.75,2.99 1.5,4.49c0.75,1.5 2.24,2.99 2.99,4.49c0.75,1.5 0.75,2.99 1.5,4.49c0.75,1.5 2.24,2.99 2.99,4.49c0.75,1.5 1,2.99 1.5,4.49c0.49,1.5 0.75,2.99 1.5,4.49c0.75,1.5 2.24,2.99 2.99,4.49c0.75,1.5 1,2.99 1.5,4.49c0.49,1.5 1,2.99 1.5,4.49c0.49,1.5 0.75,2.99 1.5,4.49c0.75,1.5 2.24,2.99 2.99,4.49c0.75,1.5 1,2.99 1.5,4.49c0.49,1.5 1,2.99 1.5,4.49c0.49,1.5 1,2.99 1.5,4.49c0.49,1.5 1,2.99 1.5,4.49c0.49,1.5 1,2.99 1.5,4.49c0.49,1.5 0.75,2.99 1.5,4.49c0.75,1.5 2.24,2.99 2.99,4.49c0.75,1.5 1,2.99 1.5,4.49c0.49,1.5 1,2.99 1.5,4.49c0.49,1.5 1,2.99 1.5,4.49c0.49,1.5 1,2.99 1.5,4.49c0.49,1.5 1,2.99 1.5,4.49c0.49,1.5 1,2.99 1.5,4.49c0.49,1.5 1,2.99 1.5,4.49c0.49,1.5 1,2.99 1.5,4.49c0.49,1.5 1,2.99 1.5,4.49c0.49,1.5 1,2.99 1.5,4.49c0.49,1.5 1,2.99 1.5,4.49c0.49,1.5 1,2.99 1.5,4.49c0.49,1.5 1,2.99 1.5,4.49c0.49,1.5 0.49,4.23 1.5,4.49c1,0.25 2.99,-2.24 4.49,-2.99c1.5,-0.75 2.99,-0.75 4.49,-1.5c1.5,-0.75 2.99,-1.99 4.49,-2.99c1.5,-1 2.99,-2.24 4.49,-2.99c1.5,-0.75 2.99,-0.75 4.49,-1.5c1.5,-0.75 2.99,-1.99 4.49,-2.99c1.5,-1 2.99,-1.99 4.49,-2.99c1.5,-1 2.99,-2.24 4.49,-2.99c1.5,-0.75 2.99,-0.75 4.49,-1.5c1.5,-0.75 2.99,-1.99 4.49,-2.99c1.5,-1 2.99,-1.99 4.49,-2.99c1.5,-1 2.99,-1.99 4.49,-2.99c1.5,-1 2.99,-1.99 4.49,-2.99c1.5,-1 2.99,-1.99 4.49,-2.99c1.5,-1 2.99,-1.99 4.49,-2.99c1.5,-1 2.99,-1.99 4.49,-2.99c1.5,-1 2.99,-1.99 4.49,-2.99c1.5,-1 2.99,-1.99 4.49,-2.99c1.5,-1 2.99,-1.99 4.49,-2.99c1.5,-1 2.99,-1.99 4.49,-2.99c1.5,-1 2.99,-1.99 4.49,-2.99c1.5,-1 2.99,-1.99 4.49,-2.99c1.5,-1 2.99,-1.99 4.49,-2.99c1.5,-1 2.99,-1.99 4.49,-2.99c1.5,-1 2.99,-1.75 4.49,-2.99c1.5,-1.24 2.99,-3.24 4.49,-4.49c1.5,-1.24 2.99,-1.99 4.49,-2.99c1.5,-1 2.99,-1.75 4.49,-2.99c1.5,-1.24 2.99,-3.24 4.49,-4.49c1.5,-1.24 2.99,-1.75 4.49,-2.99c1.5,-1.24 2.99,-2.99 4.49,-4.49c1.5,-1.5 3.24,-2.99 4.49,-4.49c1.24,-1.5 2.24,-2.99 2.99,-4.49c0.75,-1.5 1,-2.99 1.5,-4.49c0.49,-1.5 1,-2.99 1.5,-4.49c0.49,-1.5 1.24,-2.99 1.5,-4.49c0.25,-1.5 0.25,-2.99 0,-4.49c-0.25,-1.5 -0.75,-2.99 -1.5,-4.49c-0.75,-1.5 -1.99,-2.99 -2.99,-4.49c-1,-1.5 -1.75,-3.24 -2.99,-4.49c-1.24,-1.24 -2.99,-1.99 -4.49,-2.99c-1.5,-1 -2.99,-1.99 -4.49,-2.99c-1.5,-1 -2.99,-2.24 -4.49,-2.99c-1.5,-0.75 -2.99,-1 -4.49,-1.5c-1.5,-0.49 -2.99,-1 -4.49,-1.5c-1.5,-0.49 -2.99,-1 -4.49,-1.5c-1.5,-0.49 -2.99,-0.75 -4.49,-1.5c-1.5,-0.75 -2.99,-2.24 -4.49,-2.99c-1.5,-0.75 -2.99,-1 -4.49,-1.5c-1.5,-0.49 -2.99,-1.24 -4.49,-1.5c-1.5,-0.25 -2.99,0.25 -4.49,0c-1.5,-0.25 -2.99,-1 -4.49,-1.5c-1.5,-0.49 -2.99,-1 -4.49,-1.5c-1.5,-0.49 -2.99,-1 -4.49,-1.5c-1.5,-0.49 -2.99,-1 -4.49,-1.5c-1.5,-0.49 -2.99,-1 -4.49,-1.5c-1.5,-0.49 -2.99,-1 -4.49,-1.5c-1.5,-0.49 -2.99,-1.24 -4.49,-1.5c-1.5,-0.25 -2.99,0.25 -4.49,0c-1.5,-0.25 -2.99,-1 -4.49,-1.5c-1.5,-0.49 -2.99,-1 -4.49,-1.5c-1.5,-0.49 -2.99,-1.24 -4.49,-1.5c-1.5,-0.25 -2.99,0.25 -4.49,0c-1.5,-0.25 -2.99,-1 -4.49,-1.5c-1.5,-0.49 -2.99,-1.24 -4.49,-1.5c-1.5,-0.25 -2.99,0.25 -4.49,0c-1.5,-0.25 -2.99,-1 -4.49,-1.5c-1.5,-0.49 -2.99,-1.24 -4.49,-1.5c-1.5,-0.25 -2.99,0.25 -4.49,0c-1.5,-0.25 -2.99,-1 -4.49,-1.5c-1.5,-0.49 -2.99,-1.24 -4.49,-1.5c-1.5,-0.25 -2.99,0.25 -4.49,0c-1.5,-0.25 -2.99,-1.24 -4.49,-1.5c-1.5,-0.25 -2.99,0.25 -4.49,0c-1.5,-0.25 -2.99,-1.24 -4.49,-1.5c-1.5,-0.25 -2.99,0.25 -4.49,0c-1.5,-0.25 -2.99,-1.24 -4.49,-1.5c-1.5,-0.25 -2.99,0.25 -4.49,0c-1.5,-0.25 -2.99,-1 -4.49,-1.5c-1.5,-0.49 -2.99,-1.24 -4.49,-1.5c-1.5,-0.25 -2.99,0 -4.49,0c-1.5,0 -2.99,0.25 -4.49,0c-1.5,-0.25 -2.99,-1.24 -4.49,-1.5c-1.5,-0.25 -2.99,0.25 -4.49,0c-1.5,-0.25 -2.99,-1.24 -4.49,-1.5c-1.5,-0.25 -2.99,0 -4.49,0c-1.5,0 -2.99,0 -4.49,0c-1.5,0 -2.99,0 -4.49,0c-1.5,0 -2.99,0 -4.49,0c-1.5,0 -3.48,0 -4.49,0c-1,0 -1.5,-0.75 -1.5,0zm47.85,20.93c1,-0.25 2.99,-1.24 4.49,-1.5c1.5,-0.25 2.99,-0.25 4.49,0c1.5,0.25 2.99,0.49 4.49,1.5c1.5,1 3.24,2.99 4.49,4.49c1.24,1.5 2.24,2.99 2.99,4.49c0.75,1.5 1.5,2.99 1.5,4.49c0,1.5 -1,2.99 -1.5,4.49c-0.49,1.5 -0.75,2.99 -1.5,4.49c-0.75,1.5 -1.75,3.24 -2.99,4.49c-1.24,1.24 -2.99,2.24 -4.49,2.99c-1.5,0.75 -2.99,1.24 -4.49,1.5c-1.5,0.25 -2.99,0.25 -4.49,0c-1.5,-0.25 -2.99,-0.75 -4.49,-1.5c-1.5,-0.75 -3.24,-1.75 -4.49,-2.99c-1.24,-1.24 -2.24,-2.99 -2.99,-4.49c-0.75,-1.5 -1.24,-2.99 -1.5,-4.49c-0.25,-1.5 -0.25,-2.99 0,-4.49c0.25,-1.5 0.75,-2.99 1.5,-4.49c0.75,-1.5 1.75,-2.99 2.99,-4.49c1.24,-1.5 3.48,-3.74 4.49,-4.49c1,-0.75 0.49,0.25 1.5,0z" fill="#000" fill-rule="evenodd" id="svg_1"/>
 </g>
</svg>
